<?xml version="1.0" standalone="no"?><!DOCTYPE svg PUBLIC "-//W3C//DTD SVG 1.1//EN" "http://www.w3.org/Graphics/SVG/1.1/DTD/svg11.dtd"><svg t="1686051663566" class="icon" viewBox="0 0 1024 1024" version="1.1" xmlns="http://www.w3.org/2000/svg" p-id="1889" xmlns:xlink="http://www.w3.org/1999/xlink" width="200" height="200"><path d="M376.32 31.36c-91.52 0-177.28 30.08-242.56 85.12-65.28 55.04-101.12 128-101.12 205.44v669.44H640c94.08 0 182.4-31.36 248.96-87.68 66.56-56.32 103.68-131.2 103.68-210.56V31.36H376.32z m-82.56 398.72h322.56c21.76 0 39.04 14.72 39.04 32.64s-17.28 32.64-39.04 32.64H293.76c-21.76 0-39.04-14.72-39.04-32.64s17.92-32.64 39.04-32.64z m438.4 263.04h-438.4c-21.76 0-39.04-14.72-39.04-32.64s17.28-32.64 39.04-32.64h438.4c21.76 0 39.04 14.72 39.04 32.64s-17.92 32.64-39.04 32.64z"  p-id="1890"></path></svg>